<?xml version="1.0" encoding="UTF-8" standalone="no"?>
<svg
   xmlns:dc="http://purl.org/dc/elements/1.1/"
   xmlns:cc="http://creativecommons.org/ns#"
   xmlns:rdf="http://www.w3.org/1999/02/22-rdf-syntax-ns#"
   xmlns:svg="http://www.w3.org/2000/svg"
   xmlns="http://www.w3.org/2000/svg"
   xmlns:sodipodi="http://sodipodi.sourceforge.net/DTD/sodipodi-0.dtd"
   xmlns:inkscape="http://www.inkscape.org/namespaces/inkscape"
   width="33.61335mm"
   height="36.703026mm"
   viewBox="0 0 33.613349 36.703026"
   version="1.1"
   id="svg1427"
   inkscape:version="1.0 (4035a4fb49, 2020-05-01)"
   sodipodi:docname="icon.svg">
  <defs
     id="defs1421" />
  <sodipodi:namedview
     lock-margins="true"
     id="base"
     pagecolor="#ffffff"
     bordercolor="#666666"
     borderopacity="1.0"
     inkscape:pageopacity="0.0"
     inkscape:pageshadow="2"
     inkscape:zoom="2.8"
     inkscape:cx="129.00972"
     inkscape:cy="81.852441"
     inkscape:document-units="mm"
     inkscape:current-layer="layer1"
     inkscape:document-rotation="0"
     showgrid="false"
     fit-margin-top="2"
     fit-margin-left="2"
     fit-margin-right="2"
     fit-margin-bottom="2"
     inkscape:window-width="1918"
     inkscape:window-height="1058"
     inkscape:window-x="1920"
     inkscape:window-y="20"
     inkscape:window-maximized="1" />
  <metadata
     id="metadata1424">
    <rdf:RDF>
      <cc:Work
         rdf:about="">
        <dc:format>image/svg+xml</dc:format>
        <dc:type
           rdf:resource="http://purl.org/dc/dcmitype/StillImage" />
        <dc:title></dc:title>
      </cc:Work>
    </rdf:RDF>
  </metadata>
  <g
     inkscape:label="Слой 1"
     inkscape:groupmode="layer"
     id="layer1"
     transform="translate(52.383312,38.305812)">
    <g
       transform="matrix(0.48193322,0,0,-0.48193322,-40.737419,-9.9122574)"
       id="g1566">
      <path
         id="path1568"
         style="fill:#ffb000;fill-opacity:1;fill-rule:nonzero;stroke:none"
         d="m 0,0 c -2.726,0 -4.945,2.216 -4.945,4.951 0,2.733 2.219,4.953 4.945,4.953 2.737,0 4.958,-2.22 4.958,-4.953 C 4.958,2.216 2.737,0 0,0 m 29.942,4.951 c -6.583,0 -11.922,5.337 -11.922,11.923 0,4.638 2.659,8.653 6.534,10.621 L 10.704,54.766 4.47,42.472 c 0.473,0.126 0.977,0.2 1.493,0.2 3.299,0 5.964,-2.67 5.964,-5.963 0,-3.292 -2.665,-5.96 -5.964,-5.96 -2.515,0 -4.661,1.562 -5.534,3.766 l -20.444,-40.27 c 9.222,-4.693 19.663,-7.337 30.719,-7.337 11.059,0 21.5,2.644 30.728,7.339 L 35.339,6.25 C 33.714,5.423 31.886,4.951 29.942,4.951" />
    </g>
  </g>
</svg>
